{"title":"Avatar 2009 DVDScr H264 AAC-AnDyFTW (incl. swesub)","uid":5354405,"size":2286503506,"categoryP":"video","categoryS":"movies","magnet":"?xt=urn:btih:5dca9897adc4cb0f75bcebe618f0c4f856fee51d&amp;dn=Avatar+2009+DVDScr+H264+AAC-AnDyFTW+%28incl.+swesub%29&amp;tr=udp%3A%2F%2Ftracker.openbittorrent.com%3A80&amp;tr=udp%3A%2F%2Fopen.demonii.com%3A1337&amp;tr=udp%3A%2F%2Ftracker.coppersurfer.tk%3A6969&amp;tr=udp%3A%2F%2Fexodus.desync.com%3A6969","seeders":0,"leechers":0,"uploader":"andyftw","files":10,"time":1265888739,"description":"Format                           : mpeg4\nFormat/Info                      : Audio Video Interleave\nFormat profile                   : OpenDML\nFile size                        : 2157 MiB\nDuration                         : 2h 33mn\nOverall bit rate                 : 1 341 Kbps\nWriting application              : VirtualDubMod 1.5.10.2 (build 2542/release)\n\nVideo\nFormat                           : xvid\nCodec ID                         : xvid\nDuration                         : 1h 33mn\nBit rate                         : 1 209 Kbps\nWidth                            : 720 pixels\nHeight                           : 320 pixels\nDisplay aspect ratio             : 2.25:1\nFrame rate                       : 25.000 fps\nResolution                       : 24 bits\nBits/(Pixel*Frame)               : 0.210\nStream size                      : 642.6 MiB (90%)\n\nAudio\nID                               : 1\nFormat                           : MPEG Audio\nFormat version                   : Version 1\nFormat profile                   : Layer 3\nCodec ID                         : 55\nCodec ID/Hint                    : MP3\nDuration                         : 2h 33mn\nBit rate mode                    : Constant\nBit rate                         : 128 Kbps\nChannel(s)                       : 2 channels\nSampling rate                    : 48.0 KHz\nResolution                       : 16 bits\nStream size                      : 71.4 MiB (10%)\nAlignment                        : Aligned on interleaves\nInterleave, duration             : 639 ms (15.98 video frames)\nInterleave, preload duration     : 216 ms\nWriting library                  : LAME3.96.1 \n\n\none of the best copies of the movie so far! i have checked with other dvdscreeners and this one is the best ive seen!  :)","torrent":{"xt":"urn:btih:5dca9897adc4cb0f75bcebe618f0c4f856fee51d","amp;dn":"Avatar+2009+DVDScr+H264+AAC-AnDyFTW+%28incl.+swesub%29","amp;tr":["udp%3A%2F%2Ftracker.openbittorrent.com%3A80","udp%3A%2F%2Fopen.demonii.com%3A1337","udp%3A%2F%2Ftracker.coppersurfer.tk%3A6969","udp%3A%2F%2Fexodus.desync.com%3A6969"],"infoHash":"5dca9897adc4cb0f75bcebe618f0c4f856fee51d","infoHashBuffer":{"type":"Buffer","data":[93,202,152,151,173,196,203,15,117,188,235,230,24,240,196,248,86,254,229,29]},"announce":[],"urlList":[]}}